{
	"asset":{
		"generator":"Khronos glTF Blender I/O v4.1.63",
		"version":"2.0"
	},
	"scene":0,
	"scenes":[
		{
			"name":"Scene",
			"nodes":[
				7
			]
		}
	],
	"nodes":[
		{
			"mesh":0,
			"name":"Bar-Holder",
			"translation":[
				0,
				0.002962893806397915,
				0
			]
		},
		{
			"mesh":1,
			"name":"Base"
		},
		{
			"mesh":2,
			"name":"Bolt",
			"rotation":[
				0,
				-0.12996524572372437,
				0,
				0.9915185570716858
			],
			"scale":[
				0.01158625353127718,
				0.014023845084011555,
				0.01158625353127718
			],
			"translation":[
				-0.0013628596207126975,
				0.6236823201179504,
				-0.0027942294254899025
			]
		},
		{
			"mesh":3,
			"name":"Nut"
		},
		{
			"mesh":4,
			"name":"Nut.001",
			"translation":[
				0,
				0.004148554522544146,
				0
			]
		},
		{
			"mesh":5,
			"name":"Nut.002",
			"translation":[
				0,
				0.002962893806397915,
				0
			]
		},
		{
			"mesh":6,
			"name":"Welds",
			"scale":[
				0.005028583575040102,
				0.005028583109378815,
				0.005028583575040102
			]
		},
		{
			"children":[
				0,
				1,
				2,
				3,
				4,
				5,
				6
			],
			"mesh":7,
			"name":"Cube",
			"rotation":[
				0,
				-0.224954292178154,
				0,
				0.9743692874908447
			]
		}
	],
	"materials":[
		{
			"doubleSided":true,
			"name":"Base",
			"pbrMetallicRoughness":{
				"baseColorFactor":[
					0.14345593750476837,
					0.14345593750476837,
					0.14345593750476837,
					1
				],
				"roughnessFactor":0.4330708384513855
			}
		},
		{
			"doubleSided":true,
			"name":"Material.002",
			"pbrMetallicRoughness":{
				"baseColorFactor":[
					0.34852123260498047,
					0.34852123260498047,
					0.34852123260498047,
					1
				],
				"roughnessFactor":0.5
			}
		},
		{
			"doubleSided":true,
			"name":"Metal",
			"pbrMetallicRoughness":{
				"metallicRoughnessTexture":{
					"index":0
				}
			}
		},
		{
			"doubleSided":true,
			"name":"Welding",
			"pbrMetallicRoughness":{
				"baseColorFactor":[
					0.0486287996172905,
					0.0486287996172905,
					0.0486287996172905,
					1
				],
				"roughnessFactor":0.30708661675453186
			}
		}
	],
	"meshes":[
		{
			"name":"Nut.003",
			"primitives":[
				{
					"attributes":{
						"POSITION":0,
						"NORMAL":1
					},
					"indices":2,
					"material":0
				}
			]
		},
		{
			"name":"Plane",
			"primitives":[
				{
					"attributes":{
						"POSITION":3,
						"NORMAL":4,
						"TEXCOORD_0":5
					},
					"indices":6,
					"material":0
				}
			]
		},
		{
			"name":"Bolt",
			"primitives":[
				{
					"attributes":{
						"POSITION":7,
						"NORMAL":8
					},
					"indices":9,
					"material":1
				}
			]
		},
		{
			"name":"Nut",
			"primitives":[
				{
					"attributes":{
						"POSITION":10,
						"NORMAL":11
					},
					"indices":12,
					"material":1
				}
			]
		},
		{
			"name":"Nut.001",
			"primitives":[
				{
					"attributes":{
						"POSITION":13,
						"NORMAL":14
					},
					"indices":15,
					"material":2
				}
			]
		},
		{
			"name":"Nut.002",
			"primitives":[
				{
					"attributes":{
						"POSITION":16,
						"NORMAL":17
					},
					"indices":18,
					"material":0
				}
			]
		},
		{
			"name":"Cube.002",
			"primitives":[
				{
					"attributes":{
						"POSITION":19,
						"NORMAL":20,
						"TEXCOORD_0":21
					},
					"indices":22,
					"material":3
				}
			]
		},
		{
			"name":"Cube.001",
			"primitives":[
				{
					"attributes":{
						"POSITION":23,
						"NORMAL":24,
						"TEXCOORD_0":25
					},
					"indices":26,
					"material":0
				}
			]
		}
	],
	"textures":[
		{
			"sampler":0,
			"source":0
		}
	],
	"images":[
		{
			"mimeType":"image/png",
			"name":"scratches",
			"uri":"scratches.png"
		}
	],
	"accessors":[
		{
			"bufferView":0,
			"componentType":5126,
			"count":7524,
			"max":[
				0.024713408201932907,
				0.939138650894165,
				0.02160860039293766
			],
			"min":[
				-0.02908654883503914,
				0.9152179956436157,
				-0.02986355684697628
			],
			"type":"VEC3"
		},
		{
			"bufferView":1,
			"componentType":5126,
			"count":7524,
			"type":"VEC3"
		},
		{
			"bufferView":2,
			"componentType":5123,
			"count":45120,
			"type":"SCALAR"
		},
		{
			"bufferView":3,
			"componentType":5126,
			"count":12818,
			"max":[
				0.49085888266563416,
				-0.023227296769618988,
				0.14979462325572968
			],
			"min":[
				-0.48291757702827454,
				-0.04103300720453262,
				-0.15726204216480255
			],
			"type":"VEC3"
		},
		{
			"bufferView":4,
			"componentType":5126,
			"count":12818,
			"type":"VEC3"
		},
		{
			"bufferView":5,
			"componentType":5126,
			"count":12818,
			"type":"VEC2"
		},
		{
			"bufferView":6,
			"componentType":5123,
			"count":72192,
			"type":"SCALAR"
		},
		{
			"bufferView":7,
			"componentType":5126,
			"count":8168,
			"max":[
				1.5,
				19.600000381469727,
				1.5
			],
			"min":[
				-1.5,
				0,
				-1.5
			],
			"type":"VEC3"
		},
		{
			"bufferView":8,
			"componentType":5126,
			"count":8168,
			"type":"VEC3"
		},
		{
			"bufferView":9,
			"componentType":5123,
			"count":48894,
			"type":"SCALAR"
		},
		{
			"bufferView":10,
			"componentType":5126,
			"count":2611,
			"max":[
				0.024125317111611366,
				0.6494165062904358,
				0.018659286201000214
			],
			"min":[
				-0.028498457744717598,
				0.6291155815124512,
				-0.026914242655038834
			],
			"type":"VEC3"
		},
		{
			"bufferView":11,
			"componentType":5126,
			"count":2611,
			"type":"VEC3"
		},
		{
			"bufferView":12,
			"componentType":5123,
			"count":8274,
			"type":"SCALAR"
		},
		{
			"bufferView":13,
			"componentType":5126,
			"count":2609,
			"max":[
				0.024125317111611366,
				0.8991618752479553,
				0.018659286201000214
			],
			"min":[
				-0.028498457744717598,
				0.8707559704780579,
				-0.026914242655038834
			],
			"type":"VEC3"
		},
		{
			"bufferView":14,
			"componentType":5126,
			"count":2609,
			"type":"VEC3"
		},
		{
			"bufferView":15,
			"componentType":5123,
			"count":8274,
			"type":"SCALAR"
		},
		{
			"bufferView":16,
			"componentType":5126,
			"count":1417,
			"max":[
				0.021244242787361145,
				0.9150203466415405,
				0.022149860858917236
			],
			"min":[
				-0.025617383420467377,
				0.9008139371871948,
				-0.030404817312955856
			],
			"type":"VEC3"
		},
		{
			"bufferView":17,
			"componentType":5126,
			"count":1417,
			"type":"VEC3"
		},
		{
			"bufferView":18,
			"componentType":5123,
			"count":4368,
			"type":"SCALAR"
		},
		{
			"bufferView":19,
			"componentType":5126,
			"count":24,
			"max":[
				0.00033949007047340274,
				-0.022887809202075005,
				-0.0033942139707505703
			],
			"min":[
				-0.00033949007047340274,
				-0.02356678806245327,
				-0.004073194228112698
			],
			"type":"VEC3"
		},
		{
			"bufferView":20,
			"componentType":5126,
			"count":24,
			"type":"VEC3"
		},
		{
			"bufferView":21,
			"componentType":5126,
			"count":24,
			"type":"VEC2"
		},
		{
			"bufferView":22,
			"componentType":5123,
			"count":36,
			"type":"SCALAR"
		},
		{
			"bufferView":23,
			"componentType":5126,
			"count":862,
			"max":[
				0.0703241229057312,
				0.6337002515792847,
				0.06648632884025574
			],
			"min":[
				-0.07381995022296906,
				-0.027076750993728638,
				-0.07765774428844452
			],
			"type":"VEC3"
		},
		{
			"bufferView":24,
			"componentType":5126,
			"count":862,
			"type":"VEC3"
		},
		{
			"bufferView":25,
			"componentType":5126,
			"count":862,
			"type":"VEC2"
		},
		{
			"bufferView":26,
			"componentType":5123,
			"count":3840,
			"type":"SCALAR"
		}
	],
	"bufferViews":[
		{
			"buffer":0,
			"byteLength":90288,
			"byteOffset":0,
			"target":34962
		},
		{
			"buffer":0,
			"byteLength":90288,
			"byteOffset":90288,
			"target":34962
		},
		{
			"buffer":0,
			"byteLength":90240,
			"byteOffset":180576,
			"target":34963
		},
		{
			"buffer":0,
			"byteLength":153816,
			"byteOffset":270816,
			"target":34962
		},
		{
			"buffer":0,
			"byteLength":153816,
			"byteOffset":424632,
			"target":34962
		},
		{
			"buffer":0,
			"byteLength":102544,
			"byteOffset":578448,
			"target":34962
		},
		{
			"buffer":0,
			"byteLength":144384,
			"byteOffset":680992,
			"target":34963
		},
		{
			"buffer":0,
			"byteLength":98016,
			"byteOffset":825376,
			"target":34962
		},
		{
			"buffer":0,
			"byteLength":98016,
			"byteOffset":923392,
			"target":34962
		},
		{
			"buffer":0,
			"byteLength":97788,
			"byteOffset":1021408,
			"target":34963
		},
		{
			"buffer":0,
			"byteLength":31332,
			"byteOffset":1119196,
			"target":34962
		},
		{
			"buffer":0,
			"byteLength":31332,
			"byteOffset":1150528,
			"target":34962
		},
		{
			"buffer":0,
			"byteLength":16548,
			"byteOffset":1181860,
			"target":34963
		},
		{
			"buffer":0,
			"byteLength":31308,
			"byteOffset":1198408,
			"target":34962
		},
		{
			"buffer":0,
			"byteLength":31308,
			"byteOffset":1229716,
			"target":34962
		},
		{
			"buffer":0,
			"byteLength":16548,
			"byteOffset":1261024,
			"target":34963
		},
		{
			"buffer":0,
			"byteLength":17004,
			"byteOffset":1277572,
			"target":34962
		},
		{
			"buffer":0,
			"byteLength":17004,
			"byteOffset":1294576,
			"target":34962
		},
		{
			"buffer":0,
			"byteLength":8736,
			"byteOffset":1311580,
			"target":34963
		},
		{
			"buffer":0,
			"byteLength":288,
			"byteOffset":1320316,
			"target":34962
		},
		{
			"buffer":0,
			"byteLength":288,
			"byteOffset":1320604,
			"target":34962
		},
		{
			"buffer":0,
			"byteLength":192,
			"byteOffset":1320892,
			"target":34962
		},
		{
			"buffer":0,
			"byteLength":72,
			"byteOffset":1321084,
			"target":34963
		},
		{
			"buffer":0,
			"byteLength":10344,
			"byteOffset":1321156,
			"target":34962
		},
		{
			"buffer":0,
			"byteLength":10344,
			"byteOffset":1331500,
			"target":34962
		},
		{
			"buffer":0,
			"byteLength":6896,
			"byteOffset":1341844,
			"target":34962
		},
		{
			"buffer":0,
			"byteLength":7680,
			"byteOffset":1348740,
			"target":34963
		}
	],
	"samplers":[
		{
			"magFilter":9729,
			"minFilter":9987
		}
	],
	"buffers":[
		{
			"byteLength":1356420,
			"uri":"product1.bin"
		}
	]
}
