<svg id="visual" viewBox="0 0 900 600" width="900" height="600" xmlns="http://www.w3.org/2000/svg" xmlns:xlink="http://www.w3.org/1999/xlink" version="1.1"><path d="M0 17L12.5 20.3C25 23.7 50 30.3 75 29.5C100 28.7 125 20.3 150 16.2C175 12 200 12 225 16.5C250 21 275 30 300 31.8C325 33.7 350 28.3 375 23.5C400 18.7 425 14.3 450 13.2C475 12 500 14 525 14.7C550 15.3 575 14.7 600 20.5C625 26.3 650 38.7 675 42.8C700 47 725 43 750 36.5C775 30 800 21 825 19.7C850 18.3 875 24.7 887.5 27.8L900 31L900 0L887.5 0C875 0 850 0 825 0C800 0 775 0 750 0C725 0 700 0 675 0C650 0 625 0 600 0C575 0 550 0 525 0C500 0 475 0 450 0C425 0 400 0 375 0C350 0 325 0 300 0C275 0 250 0 225 0C200 0 175 0 150 0C125 0 100 0 75 0C50 0 25 0 12.5 0L0 0Z" fill="#ffffff" stroke-linecap="round" stroke-linejoin="miter"></path></svg>