<svg id="visual" viewBox="0 0 900 600" width="900" height="600" xmlns="http://www.w3.org/2000/svg" xmlns:xlink="http://www.w3.org/1999/xlink" version="1.1"><path d="M0 38L16.7 36.7C33.3 35.3 66.7 32.7 100 30.3C133.3 28 166.7 26 200 27.8C233.3 29.7 266.7 35.3 300 33.8C333.3 32.3 366.7 23.7 400 22.2C433.3 20.7 466.7 26.3 500 26.3C533.3 26.3 566.7 20.7 600 20C633.3 19.3 666.7 23.7 700 24.8C733.3 26 766.7 24 800 25.3C833.3 26.7 866.7 31.3 883.3 33.7L900 36L900 0L883.3 0C866.7 0 833.3 0 800 0C766.7 0 733.3 0 700 0C666.7 0 633.3 0 600 0C566.7 0 533.3 0 500 0C466.7 0 433.3 0 400 0C366.7 0 333.3 0 300 0C266.7 0 233.3 0 200 0C166.7 0 133.3 0 100 0C66.7 0 33.3 0 16.7 0L0 0Z" fill="#DCAF40" stroke-linecap="round" stroke-linejoin="miter"></path></svg>