<svg id="visual" viewBox="0 0 900 600" width="900" height="600" xmlns="http://www.w3.org/2000/svg" xmlns:xlink="http://www.w3.org/1999/xlink" version="1.1"><path d="M0 86L16.7 88.3C33.3 90.7 66.7 95.3 100 96.3C133.3 97.3 166.7 94.7 200 93.5C233.3 92.3 266.7 92.7 300 94.2C333.3 95.7 366.7 98.3 400 95.7C433.3 93 466.7 85 500 82.7C533.3 80.3 566.7 83.7 600 85.7C633.3 87.7 666.7 88.3 700 90.2C733.3 92 766.7 95 800 93.5C833.3 92 866.7 86 883.3 83L900 80L900 0L883.3 0C866.7 0 833.3 0 800 0C766.7 0 733.3 0 700 0C666.7 0 633.3 0 600 0C566.7 0 533.3 0 500 0C466.7 0 433.3 0 400 0C366.7 0 333.3 0 300 0C266.7 0 233.3 0 200 0C166.7 0 133.3 0 100 0C66.7 0 33.3 0 16.7 0L0 0Z" fill="#151A20" stroke-linecap="round" stroke-linejoin="miter"></path></svg>